Patient4_TMGait_0pt7_02_left_21_GRF.mot
version=1
nRows=58
nColumns=19
inDegrees=no
endheader
time	F1x	F1y	F1z	M1x	M1y	M1z	F2x	F2y	F2z	M2x	M2y	M2z	EC1x	EC1y	EC1z	EC2x	EC2y	EC2z
23.83	14.1457	-17.4203	7.2413	2.8962	-3.2278	-29.6869	-46.2998	799.0026	-63.9839	297.6926	100.9741	887.712	-0.0592	0.0182	-0.0073	-0.0462	0.0165	0.9585
23.8417	9.2124	-10.5395	4.7928	1.5543	-2.2425	-18.4912	-42.466	792.0327	-65.0129	296.8796	97.0488	876.5831	-0.0592	0.0182	-0.0073	-0.0462	0.0165	0.9585
23.8534	5.1197	-4.7582	2.8066	0.41277	-1.4576	-9.1137	-38.4592	785.4205	-65.4774	295.9221	92.8341	864.924	-0.0592	0.0182	-0.0073	-0.0462	0.0165	0.9585
23.8651	2.029	-0.35372	1.3369	-0.46976	-0.88484	-1.9922	-34.472	779.5196	-65.3296	294.8781	88.5173	853.2414	-0.0592	0.0182	-0.0073	-0.0462	0.0165	0.9585
23.8769	-0.071249	2.6935	0.36524	-1.09	-0.50862	2.8888	-30.6148	774.4232	-64.6895	293.7907	84.2725	841.7962	-0.0592	0.0182	-0.0073	-0.0462	0.0165	0.9585
23.8886	-1.3802	4.5976	-0.21625	-1.4843	-0.28478	5.9096	-26.8864	770.1005	-63.6476	292.6964	80.1329	830.7075	-0.0592	0.0182	-0.0073	-0.0462	0.0165	0.9585
23.9003	-2.0638	5.5951	-0.49217	-1.6947	-0.18577	7.4754	-23.2427	766.3851	-62.3396	291.5895	76.1248	819.9447	-0.0592	0.0182	-0.0073	-0.0462	0.0165	0.9585
23.912	-2.3495	5.9494	-0.56916	-1.7672	-0.17645	8.0371	-19.614	762.9192	-60.8319	290.3937	72.1895	809.2506	-0.0592	0.0182	-0.0073	-0.0462	0.0165	0.9585
23.9237	-2.3858	5.8439	-0.5136	-1.7294	-0.23731	7.8874	-15.8972	759.2411	-59.2198	288.9774	68.2928	798.2382	-0.0592	0.0182	-0.0073	-0.0462	0.0165	0.9585
23.9354	-2.3269	5.3978	-0.39045	-1.5935	-0.35099	7.2592	-11.9907	754.8845	-57.5683	287.1945	64.3918	786.5006	-0.0592	0.0182	-0.0073	-0.0462	0.0165	0.9585
23.9471	-2.246	4.6388	-0.24428	-1.3514	-0.49315	6.2205	-7.8194	749.504	-55.9685	284.9318	60.503	773.7494	-0.0592	0.0182	-0.0073	-0.0462	0.0165	0.9585
23.9589	-2.21	3.5455	-0.095393	-0.98422	-0.65857	4.7932	-3.3583	743.0065	-54.5236	282.1623	56.6977	759.96	-0.0592	0.0182	-0.0073	-0.0462	0.0165	0.9585
23.9706	-2.2035	2.0545	0.028783	-0.46877	-0.80969	2.9144	1.3655	735.5654	-53.3554	278.9611	53.1031	745.3682	-0.0592	0.0182	-0.0073	-0.0462	0.0165	0.9585
23.9823	-2.2001	0.14318	0.12833	0.2045	-0.92916	0.56776	6.2936	727.6574	-52.5999	275.5161	49.8794	730.5161	-0.0592	0.0182	-0.0073	-0.0462	0.0165	0.9585
23.994	-2.1063	-2.1505	0.16616	1.0168	-0.94078	-2.2218	11.36	719.9618	-52.363	272.0989	47.1634	716.1216	-0.0592	0.0182	-0.0073	-0.0462	0.0165	0.9585
24.0057	-1.8027	-4.6057	0.12897	1.8882	-0.77817	-5.208	16.455	713.2432	-52.7191	269.0187	45.0677	702.9764	-0.0592	0.0182	-0.0073	-0.0462	0.0165	0.9585
24.0174	-1.1309	-6.7871	-0.033216	2.655	-0.32408	-7.895	21.4867	708.2235	-53.6608	266.5727	43.6174	691.7983	-0.0592	0.0182	-0.0073	-0.0462	0.0165	0.9585
24.0291	0.095664	-7.9226	-0.35567	3.0336	0.53303	-9.365	26.2948	705.3965	-55.1461	264.9696	42.8164	683.0773	-0.0592	0.0182	-0.0073	-0.0462	0.0165	0.9585
24.0409	2.0689	-6.8461	-0.88984	2.5938	1.9232	-8.2172	30.7188	704.8443	-57.0679	264.2602	42.6028	676.8902	-0.0592	0.0182	-0.0073	-0.0462	0.0165	0.9585
24.0526	4.9365	-1.9798	-1.671	0.75141	3.9422	-2.5352	34.5493	706.1254	-59.3121	264.2862	42.9194	672.8502	-0.0592	0.0182	-0.0073	-0.0462	0.0165	0.9585
24.0643	8.7322	8.6633	-2.7005	-3.2244	6.6093	10.096	37.6291	708.2375	-61.7055	264.6743	43.641	670.0241	-0.0592	0.0182	-0.0073	-0.0462	0.0165	0.9585
24.076	13.2805	27.2506	-3.934	-10.1276	9.7994	32.3224	39.8316	709.8226	-64.0706	264.9042	44.6322	667.1646	-0.0592	0.0182	-0.0073	-0.0462	0.0165	0.9585
24.0877	18.0262	55.7533	-5.2123	-20.6647	13.112	66.5638	41.157	709.3636	-66.1564	264.3984	45.6595	662.8469	-0.0592	0.0182	-0.0073	-0.0462	0.0165	0.9585
24.0994	21.9179	95.244	-6.251	-35.1974	15.7972	114.1635	41.6359	705.49	-67.6905	262.6321	46.4688	655.8207	-0.0592	0.0182	-0.0073	-0.0462	0.0165	0.9585
24.1111	23.2086	144.8471	-6.552	-53.3614	16.6027	174.1486	41.3872	697.0737	-68.3756	259.1822	46.7697	645.0471	-0.0592	0.0182	-0.0073	-0.0462	0.0165	0.9585
24.1229	19.9807	201.1152	-5.4551	-73.8405	14.0482	242.4451	40.527	683.3757	-67.9378	253.7782	46.3022	629.8711	-0.0592	0.0182	-0.0073	-0.0462	0.0165	0.9585
24.1346	11.9971	258.6754	-2.2387	-94.6138	7.1957	312.6206	39.2687	664.0538	-66.2134	246.3095	44.8766	609.9609	-0.0592	0.0182	-0.0073	-0.0462	0.0165	0.9585
24.1463	1.1344	311.5021	3.4727	-113.4839	-3.6717	377.147	37.8448	639.1429	-63.208	236.8039	42.4393	585.3281	-0.0592	0.0182	-0.0073	-0.0462	0.0165	0.9585
24.158	-10.2557	355.114	10.9287	-128.9046	-16.762	430.1876	36.5322	608.9064	-59.1434	225.3749	39.1035	556.1393	-0.0592	0.0182	-0.0073	-0.0462	0.0165	0.9585
24.1697	-20.6222	388.8716	18.8183	-140.7232	-29.9096	470.6716	35.5031	573.9225	-54.3591	212.2349	35.1049	522.8664	-0.0592	0.0182	-0.0073	-0.0462	0.0165	0.9585
24.1814	-29.3265	414.9984	26.042	-149.8299	-41.5881	501.1988	34.8341	534.9336	-49.208	197.6577	30.7165	486.1148	-0.0592	0.0182	-0.0073	-0.0462	0.0165	0.9585
24.1931	-36.2839	436.713	31.8916	-157.4486	-50.9244	525.7063	34.4326	492.8069	-43.9824	181.956	26.2103	446.6717	-0.0592	0.0182	-0.0073	-0.0462	0.0165	0.9585
24.2049	-41.4466	456.6759	35.9107	-164.5708	-57.4058	547.4469	34.0783	448.3149	-38.8029	165.4153	21.7549	405.2426	-0.0592	0.0182	-0.0073	-0.0462	0.0165	0.9585
24.2166	-44.8625	476.3277	38.1658	-171.7143	-61.1328	568.2129	33.4074	402.1088	-33.7033	148.2747	17.4966	362.4736	-0.0592	0.0182	-0.0073	-0.0462	0.0165	0.9585
24.2283	-46.5378	496.4164	39.0493	-179.0935	-62.5922	588.8509	32.0842	354.7867	-28.7093	130.7521	13.5789	318.9463	-0.0592	0.0182	-0.0073	-0.0462	0.0165	0.9585
24.24	-46.6051	517.3034	39.2391	-186.7578	-62.6307	609.8939	29.7793	307.0141	-23.913	113.0905	10.1982	275.3057	-0.0592	0.0182	-0.0073	-0.0462	0.0165	0.9585
24.2517	-45.3413	539.4058	39.4374	-194.7644	-62.1683	631.8647	26.3935	259.731	-19.4736	95.6282	7.5386	232.3979	-0.0592	0.0182	-0.0073	-0.0462	0.0165	0.9585
24.2634	-43.2262	563.0711	40.2461	-203.1472	-62.0682	655.2774	22.0386	214.1357	-15.5531	78.7972	5.7016	191.2782	-0.0592	0.0182	-0.0073	-0.0462	0.0165	0.9585
24.2751	-40.7365	588.2785	42.0806	-211.8407	-62.9813	680.2143	17.1189	171.5288	-12.266	63.0732	4.641	153.0364	-0.0592	0.0182	-0.0073	-0.0462	0.0165	0.9585
24.2869	-38.3926	614.8602	45.056	-220.7461	-65.2128	706.5455	12.1719	133.0975	-9.6274	48.8905	4.1627	118.6659	-0.0592	0.0182	-0.0073	-0.0462	0.0165	0.9585
24.2986	-36.4074	642.4716	48.9857	-229.7423	-68.6252	733.931	7.703	99.5981	-7.5443	36.5368	3.9861	88.7697	-0.0592	0.0182	-0.0073	-0.0462	0.0165	0.9585
24.3103	-34.8556	670.6719	53.4532	-238.686	-72.7737	761.9021	4.0432	71.3916	-5.8702	26.1478	3.8596	63.6357	-0.0592	0.0182	-0.0073	-0.0462	0.0165	0.9585
24.322	-33.724	698.5258	58.0624	-247.2834	-77.1902	789.3801	1.3042	48.4445	-4.4857	17.7138	3.637	43.2021	-0.0592	0.0182	-0.0073	-0.0462	0.0165	0.9585
24.3337	-32.9267	724.8227	62.4595	-255.1474	-81.4281	815.0193	-0.54841	30.4974	-3.3078	11.134	3.2583	27.2364	-0.0592	0.0182	-0.0073	-0.0462	0.0165	0.9585
24.3454	-32.2511	748.3099	66.4334	-261.8804	-85.1649	837.3729	-1.5937	17.1485	-2.2929	6.2533	2.7234	15.3782	-0.0592	0.0182	-0.0073	-0.0462	0.0165	0.9585
24.3571	-31.5764	767.7866	69.8357	-267.1106	-88.1856	855.0969	-1.9937	7.8999	-1.44	2.8824	2.0954	7.1954	-0.0592	0.0182	-0.0073	-0.0462	0.0165	0.9585
24.3689	-30.709	782.3242	72.5821	-270.5618	-90.3425	867.1526	-1.9544	2.1301	-0.78183	0.78596	1.4837	2.1271	-0.0592	0.0182	-0.0073	-0.0462	0.0165	0.9585
24.3806	-29.5734	791.3735	74.6218	-272.0958	-91.5593	872.9822	-1.6963	-0.95733	-0.33174	-0.33123	0.97915	-0.53667	-0.0592	0.0182	-0.0073	-0.0462	0.0165	0.9585
24.3923	-28.0893	794.8983	75.916	-271.7538	-91.783	872.5715	-1.3558	-2.1693	-0.050811	-0.7652	0.59797	-1.5267	-0.0592	0.0182	-0.0073	-0.0462	0.0165	0.9585
24.404	-26.2323	793.4113	76.4867	-269.7565	-91.0443	866.5512	-1.0212	-2.1949	0.094841	-0.77074	0.3436	-1.4565	-0.0592	0.0182	-0.0073	-0.0462	0.0165	0.9585
24.4157	-24.0062	787.7735	76.3647	-266.444	-89.4016	855.878	-0.72946	-1.5862	0.15088	-0.54721	0.18985	-0.82692	-0.0592	0.0182	-0.0073	-0.0462	0.0165	0.9585
24.4274	-21.474	779.1245	75.648	-262.23	-86.9944	841.82	-0.49381	-0.71167	0.15314	-0.22949	0.10833	0.025596	-0.0592	0.0182	-0.0073	-0.0462	0.0165	0.9585
24.4391	-18.6552	768.63	74.4319	-257.5309	-83.956	825.6519	-0.3095	0.17819	0.12684	0.095656	0.074335	0.86687	-0.0592	0.0182	-0.0073	-0.0462	0.0165	0.9585
24.4509	-15.6557	757.4242	72.8802	-252.7412	-80.506	808.6143	-0.17541	0.95099	0.090416	0.38257	0.068319	1.588	-0.0592	0.0182	-0.0073	-0.0462	0.0165	0.9585
24.4626	-12.5227	746.4475	71.1422	-248.1867	-76.8355	791.7186	-0.079885	1.5592	0.045585	0.61515	0.080746	2.1549	-0.0592	0.0182	-0.0073	-0.0462	0.0165	0.9585
24.4743	-9.3256	736.4133	69.3651	-244.108	-73.1318	775.7392	-0.025198	1.9988	-0.0025203	0.79176	0.10336	2.5672	-0.0592	0.0182	-0.0073	-0.0462	0.0165	0.9585
24.486	-6.1041	727.794	67.6527	-240.6678	-69.5264	761.1164	0.0037539	2.2988	-0.051128	0.92172	0.13164	2.845	-0.0592	0.0182	-0.0073	-0.0462	0.0165	0.9585
24.4977	-2.8823	720.8711	66.0537	-237.969	-66.0828	748.1166	0.0068619	2.4979	-0.097873	1.0179	0.16529	3.0273	-0.0592	0.0182	-0.0073	-0.0462	0.0165	0.9585
